<svg width="505" height="505" viewBox="0 0 505 505" fill="none" xmlns="http://www.w3.org/2000/svg">
<path d="M134.953 453.578C108.963 426.147 93.6446 393.756 87.317 356.981C82.7758 330.588 86.0553 304.913 94.784 279.766C96.4298 275.025 97.6559 270.134 98.9994 265.291C100.581 259.589 101.859 258.731 107.133 261.701C112.869 264.931 118.274 268.777 123.692 272.543C143.004 285.967 160.794 301.055 175.556 319.554C190.481 338.256 199.115 359.794 205.033 382.69C209.134 398.556 213.572 414.336 221.779 428.72C228.839 441.093 238.101 451.228 251.013 457.721C253.763 459.104 256.311 460.89 258.671 463.51C256.909 463.398 255.093 463.523 253.393 463.139C220.722 455.744 191.206 442.071 166.677 418.789C149.743 402.718 137.655 383.287 128.199 362.077C127.363 360.203 125.516 358.781 124.139 357.149C123.382 359.247 121.532 361.678 122.052 363.388C124.71 372.13 127.036 381.175 131.204 389.219C146.525 418.784 170.334 440.317 198.334 457.517C215.851 468.276 234.533 476.359 254.937 479.615C297.204 486.36 336.67 479.305 372.438 454.862C374.44 453.495 376.806 450.641 379.091 453.538C381.318 456.362 379.054 458.799 376.725 460.791C340.62 491.673 298.733 506.597 251.374 504.865C206.101 503.209 167.243 486.001 134.953 453.578Z" fill="#04B7DD"/>
<path d="M29.019 328.177C33.7374 344.847 41.2012 359.828 50.5653 373.929C51.8574 375.875 54.8724 378.226 51.6846 380.509C48.96 382.461 46.5579 380.248 44.6791 378.121C31.621 363.34 21.3303 346.785 13.9525 328.527C-1.51917 290.24 -4.58633 250.924 7.08017 211.222C23.2277 156.272 58.9511 118.959 112.106 98.1281C131.574 90.4987 151.821 86.6806 172.639 86.2451C190.787 85.8654 208.195 90.2429 225.34 95.8091C230.522 97.4914 235.822 98.8073 241.041 100.38C245.416 101.699 246.322 102.977 244.027 106.857C239.576 114.382 234.747 121.709 229.678 128.835C215.278 149.078 198.976 167.504 178.483 181.914C163.477 192.466 146.86 199.298 129.335 204.255C112.919 208.898 96.2635 212.816 80.887 220.606C65.8293 228.234 53.8812 238.944 46.3789 254.295C45.4035 256.29 44.0838 258.117 41.9021 259.769C42.01 257.89 41.8465 255.947 42.266 254.141C50.8177 217.308 66.8823 184.642 95.4934 159.085C109.983 146.142 126.637 136.601 144.277 128.648C145.754 127.982 146.672 126.074 147.849 124.743C146.255 124.099 144.447 122.61 143.104 122.952C136.052 124.752 128.816 126.328 122.196 129.24C98.6555 139.597 80.0078 156.317 64.0682 176.146C47.5212 196.732 34.5494 219.363 28.097 245.176C22.4604 267.726 21.6398 290.605 25.7811 313.556C26.6464 318.351 27.8649 323.082 29.019 328.177Z" fill="#FECA09"/>
<path d="M313.877 51.7821C280.496 29.4252 244.133 19.991 204.406 23.8776C178.094 26.4517 154.289 35.8226 132.474 50.5644C130.539 51.8718 128.315 54.3753 126.231 51.4542C124.452 48.9605 126.104 46.6204 128.251 44.7515C152.268 23.8383 179.785 10.0117 211.043 3.78268C248.959 -3.77298 285.74 -0.213213 320.806 16.2997C364.827 37.03 394.038 71.2833 410.174 116.937C417.579 137.888 420.915 159.478 419.827 181.753C419.218 194.216 416.38 206.18 412.833 218.044C410.653 225.336 408.502 232.638 406.411 239.956C404.806 245.577 403.274 246.59 398.236 243.432C389.727 238.101 381.442 232.378 373.335 226.447C353.853 212.194 336.443 195.854 322.793 175.715C311.397 158.901 305.085 140.053 299.941 120.669C295.699 104.685 291.122 88.8194 282.534 74.464C275.432 62.5935 266.052 53.1622 253.601 46.9158C251.203 45.7131 248.962 44.1987 246.648 42.8281C246.726 42.4616 246.803 42.0951 246.88 41.7286C249.019 41.8636 251.231 41.6884 253.284 42.1799C289.412 50.8291 321.568 66.6239 346.846 94.6551C359.185 108.339 368.538 123.942 376.111 140.67C376.645 141.848 376.923 143.225 377.714 144.183C378.853 145.563 380.355 146.644 381.701 147.853C382.366 146.102 383.764 144.268 383.576 142.614C382.319 131.567 377.776 121.615 372.362 112.094C358.128 87.0625 337.835 67.8426 313.877 51.7821Z" fill="#F48123"/>
<path d="M477.235 341.922C461.229 366.314 440.646 385.177 415.187 398.849C394.718 409.842 373.029 416.869 350.03 419.644C329.286 422.147 308.851 420.414 288.86 413.968C280.677 411.33 272.377 409.038 264.071 406.808C260.376 405.816 259.085 403.758 260.972 400.553C264.672 394.267 268.478 388.016 272.672 382.054C282.844 367.595 293.985 353.943 306.712 341.596C326.77 322.138 350.554 309.675 377.365 302.286C391.572 298.37 405.769 294.07 419.418 288.57C436.476 281.697 450.27 270.465 458.426 253.322C459.449 251.172 460.929 249.239 462.198 247.205C462.554 247.292 462.911 247.379 463.267 247.465C463.076 249.561 463.12 251.71 462.657 253.744C456.091 282.586 444.183 308.866 425.29 331.819C407.801 353.066 385.345 367.352 360.617 378.554C359.169 379.21 358.187 380.898 356.988 382.106C358.683 382.864 360.624 384.579 362.033 384.218C369.354 382.344 376.854 380.649 383.713 377.593C406.357 367.502 424.311 351.266 439.923 332.372C454.196 315.098 465.493 296.008 473.122 274.842C477.625 262.347 479.924 249.473 481.116 236.227C482.956 215.784 481.179 195.795 475.387 176.201C470.796 160.672 463.451 146.395 454.455 132.931C453.4 131.352 452.632 127.858 453.454 127.082C455.63 125.029 458.369 126.162 460.084 128.498C466.867 137.74 474.214 146.654 480.129 156.431C493.381 178.337 500.998 202.385 503.881 227.772C506.564 251.402 504.401 274.725 497.625 297.599C492.982 313.272 486.225 327.932 477.235 341.922Z" fill="#B6B3B2"/>
<path d="M299.039 207.36C318.005 226.776 322.722 256.017 311.05 280.682C299.607 304.864 273.893 319.496 247.013 317.121C215.877 314.371 190.86 289.793 188.136 259.277C185.243 226.866 204.53 198.212 235.478 190.095C259.597 183.768 280.888 189.622 299.039 207.36Z" fill="#28235D"/>
</svg>
